<svg width="55" height="87" viewBox="0 0 55 87" fill="none" xmlns="http://www.w3.org/2000/svg">
<path id="&#226;&#130;&#185;" d="M21.9512 87L0 48.7395V39.7227H7.31707C10.2439 39.7227 12.8049 39.3165 15 38.5042C17.2764 37.6106 19.1463 36.3515 20.6098 34.7269C22.1545 33.1022 23.2114 31.1527 23.7805 28.8782H0V19.8613H23.6585C23.1707 17.7493 22.3171 15.881 21.0976 14.2563C19.9593 12.6317 18.4146 11.3726 16.4634 10.479C14.5935 9.5042 12.3171 9.01681 9.63415 9.01681H0V0H55V9.01681H35.8537C37.2358 10.5602 38.374 12.2255 39.2683 14.0126C40.2439 15.7997 40.8943 17.7493 41.2195 19.8613H55V28.8782H41.4634C40.6504 34.8894 38.3333 39.6008 34.5122 43.0126C30.6911 46.3431 25.7724 48.6176 19.7561 49.8361L43.6585 87H21.9512Z" fill="url(#paint0_linear_6332_26107)"/>
<defs>
<linearGradient id="paint0_linear_6332_26107" x1="27.5" y1="-26.7692" x2="27.5" y2="87" gradientUnits="userSpaceOnUse">
<stop stop-color="white"/>
<stop offset="1" stop-color="#FFCFCF"/>
</linearGradient>
</defs>
</svg>
